<svg width="55" height="55" viewBox="0 0 55 55" fill="none" xmlns="http://www.w3.org/2000/svg">
<path d="M9.16699 18.333H29.792M38.9587 18.333H45.8337M25.2087 36.6663H45.8337M9.16699 36.6663H16.042" stroke="black" stroke-width="2.5" stroke-linecap="round" stroke-linejoin="round"/>
<path d="M20.6253 41.2497C23.1566 41.2497 25.2087 39.1976 25.2087 36.6663C25.2087 34.135 23.1566 32.083 20.6253 32.083C18.094 32.083 16.042 34.135 16.042 36.6663C16.042 39.1976 18.094 41.2497 20.6253 41.2497Z" stroke="black" stroke-width="2.5"/>
<path d="M34.3753 22.9167C36.9066 22.9167 38.9587 20.8646 38.9587 18.3333C38.9587 15.802 36.9066 13.75 34.3753 13.75C31.844 13.75 29.792 15.802 29.792 18.3333C29.792 20.8646 31.844 22.9167 34.3753 22.9167Z" stroke="black" stroke-width="2.5"/>
</svg>
