<svg width="31" height="34" viewBox="0 0 31 34" fill="none" xmlns="http://www.w3.org/2000/svg">
<path d="M19.3745 16.9977V31.8801C19.452 32.4467 19.2582 33.0511 18.8127 33.4477C18.6334 33.6228 18.4206 33.7617 18.1862 33.8564C17.9519 33.9512 17.7006 34 17.4469 34C17.1932 34 16.942 33.9512 16.7076 33.8564C16.4733 33.7617 16.2604 33.6228 16.0812 33.4477L12.1873 29.6515C11.9762 29.4501 11.8156 29.2038 11.7182 28.9319C11.6207 28.66 11.589 28.3698 11.6255 28.084V16.9977H11.5674L0.408964 3.05958C0.0943739 2.66586 -0.0475756 2.16675 0.0141332 1.67131C0.075842 1.17587 0.336192 0.724378 0.738294 0.415499C1.10637 0.151091 1.51319 0 1.93938 0H29.0606C29.4868 0 29.8936 0.151091 30.2617 0.415499C30.6638 0.724378 30.9242 1.17587 30.9859 1.67131C31.0476 2.16675 30.9056 2.66586 30.591 3.05958L19.4326 16.9977H19.3745Z" fill="#999999"/>
</svg>
