<svg width="60" height="62" fill="none" xmlns="http://www.w3.org/2000/svg">
    <path d="M19.127 21.7407H25.2381L20.7711 38.5148H37.9023C40.5546 38.5148 42.3693 37.4245 43.0285 35.0027L46.6502 21.437C47.3171 18.9528 46.2857 17.5588 43.7575 17.5588H18.9021C0.553264 16.9281 0.00264458 13.7586 0.00264458 13.7586C-0.144704 15.4874 5.89659 18.2519 10.3015 20.0274C13.1012 21.1566 16.0947 21.7407 19.1192 21.7407H19.127ZM30.0618 21.7407H41.7023L38.3211 34.3407H26.6805L30.054 21.7407H30.0618Z" fill="#FD51A7"/>
    <path d="M44.8981 11.8662H24.5718C18.197 11.8662 15.3121 11.9597 9.39484 11.7416C7.44829 11.6559 5.43969 11.5236 3.74906 11.0797C2.01189 10.6436 4.12906 9.38202 4.12906 9.38202C5.6801 8.29178 7.47931 7.39623 9.28627 6.45395C10.721 5.76866 13.7455 3.8841 11.6438 2.17087C11.1087 1.7815 10.5969 1.57902 10.0695 1.45442C7.33971 0.784706 7.22338 0.83143 2.13598 0.512146C5.82745 0.847005 8.89075 1.89052 8.89075 1.89052C10.4418 2.36555 10.69 2.52909 10.9614 2.73156C11.1708 2.88731 11.1785 3.21438 10.9847 3.3857C10.434 3.8841 9.35606 4.51488 8.54952 4.86531C6.70379 5.65963 4.75723 6.34492 2.88047 7.4118C1.45352 8.22169 -0.655895 9.72466 0.204931 11.8117C0.74004 12.9487 1.86454 13.4548 2.80292 13.8364C4.97438 14.6307 7.01399 14.9267 9.08463 15.2304C12.7839 15.721 16.5529 15.9858 20.3684 16.087L20.3452 16.1104H21.0199C22.8424 16.1493 24.6803 16.1415 26.5261 16.1104H44.1691C47.4263 16.1104 48.9308 18.2285 48.0933 21.4369L44.3553 35.4309C43.634 38.2811 41.4005 39.971 38.2054 39.971H37.5385L40.7336 61.1684H45.8598L42.843 42.8134C46.2243 41.6609 48.2096 39.4181 49.3574 35.1817L52.7386 22.5817C54.4293 16.2194 51.4125 11.8584 44.8981 11.8584V11.8662Z" fill="#FD51A7"/>
    <path d="M17.1498 28.2198L8.34766 61.1683H13.2334L23.5478 22.5272L17.1498 28.2198Z" fill="#FD51A7"/>
    <path d="M20.3517 39.971L14.6826 61.1684H19.5063L24.0276 44.2152H31.6898L34.0396 61.1684H39.1658L35.9706 39.971H20.3517Z" fill="#FD51A7"/>
</svg>
