<svg width="177" height="62" viewBox="0 0 177 62" fill="none" xmlns="http://www.w3.org/2000/svg">
<path d="M77.5715 32.2226L70.6306 58.0534H57.5243C55.4071 58.0534 54.3292 56.605 54.9108 54.479L60.9056 32.2226H57.3925L51.5373 53.9339C50.3663 58.3182 52.3051 61.1684 56.8496 61.1684H73.2906L81.0846 32.2148H77.5715V32.2226Z" fill="#FD51A7"/>
<path d="M57.7941 56.9632H69.8224L76.4919 32.2225H72.9788L67.1701 53.8482H59.6941L65.5027 32.2225H61.9896L55.9949 54.479C55.5916 56.0598 56.2198 56.971 57.7941 56.971V56.9632Z" fill="#FD51A7"/>
<path d="M92.0731 36.4277C90.809 36.4277 89.7776 37.0585 89.4131 38.4603L83.333 61.1684H86.8461L92.616 39.5427H100.139L94.3687 61.1684H97.8818L104.505 36.4277H92.0731Z" fill="#FD51A7"/>
<path d="M85.0927 37.5102L78.7412 61.1684H82.2543L88.4275 38.102C88.8773 36.4745 90.2732 35.3453 91.894 35.3453H105.861L98.9668 61.1762H102.48L110.227 32.2225H91.801C88.4662 32.2225 85.9923 34.2161 85.0927 37.518V37.5102Z" fill="#FD51A7"/>
<path d="M145.638 36.2175L151.656 13.7586H147.026L142.102 32.1447H129.352L134.277 13.7586H129.647L123.621 36.2175H145.638Z" fill="#FD51A7"/>
<path d="M153.052 13.7586L140.364 61.1139H145.056L157.744 13.7586H153.052Z" fill="#FD51A7"/>
<path d="M123.559 13.7586L110.871 61.1139H115.563L128.25 13.7586H123.559Z" fill="#FD51A7"/>
<path d="M123.216 37.6114L116.958 61.1139H121.588L126.745 41.6842H139.495L134.337 61.1139H138.967L145.226 37.6114H123.216Z" fill="#FD51A7"/>
<path d="M163.04 26.2106L153.222 61.1139H157.852L167.67 26.2106H163.04Z" fill="#FD51A7"/>
<path d="M172.425 13.7586L169.873 23.0645H174.511L177 13.7586H172.425Z" fill="#FD51A7"/>
<path d="M171.036 13.7586H166.344L163.847 23.0645H168.484L171.036 13.7586Z" fill="#FD51A7"/>
<path d="M159.248 61.1139H163.878L173.696 26.2106H169.066L159.248 61.1139Z" fill="#FD51A7"/>
<path d="M19.127 21.7407H25.2381L20.7711 38.5148H37.9023C40.5546 38.5148 42.3693 37.4245 43.0285 35.0027L46.6502 21.437C47.3171 18.9528 46.2857 17.5588 43.7575 17.5588H18.9021C0.553264 16.9281 0.00264458 13.7586 0.00264458 13.7586C-0.144704 15.4874 5.89659 18.2519 10.3015 20.0274C13.1012 21.1566 16.0947 21.7407 19.1192 21.7407H19.127ZM30.0618 21.7407H41.7023L38.3211 34.3407H26.6805L30.054 21.7407H30.0618Z" fill="#FD51A7"/>
<path d="M44.8981 11.8662H24.5718C18.197 11.8662 15.3121 11.9597 9.39484 11.7416C7.44829 11.6559 5.43969 11.5236 3.74906 11.0797C2.01189 10.6436 4.12906 9.38202 4.12906 9.38202C5.6801 8.29178 7.47931 7.39623 9.28627 6.45395C10.721 5.76866 13.7455 3.8841 11.6438 2.17087C11.1087 1.7815 10.5969 1.57902 10.0695 1.45442C7.33971 0.784706 7.22338 0.83143 2.13598 0.512146C5.82745 0.847005 8.89075 1.89052 8.89075 1.89052C10.4418 2.36555 10.69 2.52909 10.9614 2.73156C11.1708 2.88731 11.1785 3.21438 10.9847 3.3857C10.434 3.8841 9.35606 4.51488 8.54952 4.86531C6.70379 5.65963 4.75723 6.34492 2.88047 7.4118C1.45352 8.22169 -0.655895 9.72466 0.204931 11.8117C0.74004 12.9487 1.86454 13.4548 2.80292 13.8364C4.97438 14.6307 7.01399 14.9267 9.08463 15.2304C12.7839 15.721 16.5529 15.9858 20.3684 16.087L20.3452 16.1104H21.0199C22.8424 16.1493 24.6803 16.1415 26.5261 16.1104H44.1691C47.4263 16.1104 48.9308 18.2285 48.0933 21.4369L44.3553 35.4309C43.634 38.2811 41.4005 39.971 38.2054 39.971H37.5385L40.7336 61.1684H45.8598L42.843 42.8134C46.2243 41.6609 48.2096 39.4181 49.3574 35.1817L52.7386 22.5817C54.4293 16.2194 51.4125 11.8584 44.8981 11.8584V11.8662Z" fill="#FD51A7"/>
<path d="M17.1498 28.2198L8.34766 61.1683H13.2334L23.5478 22.5272L17.1498 28.2198Z" fill="#FD51A7"/>
<path d="M20.3517 39.971L14.6826 61.1684H19.5063L24.0276 44.2152H31.6898L34.0396 61.1684H39.1658L35.9706 39.971H20.3517Z" fill="#FD51A7"/>
</svg>
