<svg width="36" height="36" viewBox="0 0 36 36" fill="none" xmlns="http://www.w3.org/2000/svg">
<path d="M18 25.5C18.425 25.5 18.7815 25.356 19.0695 25.068C19.3575 24.78 19.501 24.424 19.5 24C19.499 23.576 19.355 23.22 19.068 22.932C18.781 22.644 18.425 22.5 18 22.5C17.575 22.5 17.219 22.644 16.932 22.932C16.645 23.22 16.501 23.576 16.5 24C16.499 24.424 16.643 24.7805 16.932 25.0695C17.221 25.3585 17.577 25.502 18 25.5ZM16.5 19.5H19.5V10.5H16.5V19.5ZM18 33C15.925 33 13.975 32.606 12.15 31.818C10.325 31.03 8.7375 29.9615 7.3875 28.6125C6.0375 27.2635 4.969 25.676 4.182 23.85C3.395 22.024 3.001 20.074 3 18C2.999 15.926 3.393 13.976 4.182 12.15C4.971 10.324 6.0395 8.7365 7.3875 7.3875C8.7355 6.0385 10.323 4.97 12.15 4.182C13.977 3.394 15.927 3 18 3C20.073 3 22.023 3.394 23.85 4.182C25.677 4.97 27.2645 6.0385 28.6125 7.3875C29.9605 8.7365 31.0295 10.324 31.8195 12.15C32.6095 13.976 33.003 15.926 33 18C32.997 20.074 32.603 22.024 31.818 23.85C31.033 25.676 29.9645 27.2635 28.6125 28.6125C27.2605 29.9615 25.673 31.0305 23.85 31.8195C22.027 32.6085 20.077 33.002 18 33Z" fill="#FD51A7"/>
</svg>
